G04 #@! TF.FileFunction,Copper,L1,Top,Signal*
%FSLAX46Y46*%
G04 Gerber Fmt 4.6, Leading zero omitted, Abs format (unit mm)*
G04 Created by KiCad (PCBNEW 4.0.7-e2-6376~58~ubuntu16.04.1) date Fri Nov 24 12:37:30 2017*
%MOMM*%
%LPD*%
G01*
G04 APERTURE LIST*
%ADD10C,0.100000*%
%ADD11R,1.600000X1.600000*%
%ADD12O,1.600000X1.600000*%
%ADD13R,2.000000X2.000000*%
%ADD14C,2.000000*%
%ADD15R,1.700000X1.700000*%
%ADD16O,1.700000X1.700000*%
%ADD17R,2.600000X2.600000*%
%ADD18C,2.600000*%
%ADD19C,0.900000*%
%ADD20C,0.500000*%
G04 APERTURE END LIST*
D10*
D11*
X27940000Y-21590000D03*
D12*
X35560000Y-39370000D03*
X27940000Y-24130000D03*
X35560000Y-36830000D03*
X27940000Y-26670000D03*
X35560000Y-34290000D03*
X27940000Y-29210000D03*
X35560000Y-31750000D03*
X27940000Y-31750000D03*
X35560000Y-29210000D03*
X27940000Y-34290000D03*
X35560000Y-26670000D03*
X27940000Y-36830000D03*
X35560000Y-24130000D03*
X27940000Y-39370000D03*
X35560000Y-21590000D03*
D13*
X67310000Y-73660000D03*
D14*
X72310000Y-73660000D03*
D15*
X46990000Y-81280000D03*
D16*
X49530000Y-81280000D03*
X52070000Y-81280000D03*
X54610000Y-81280000D03*
X57150000Y-81280000D03*
X59690000Y-81280000D03*
X62230000Y-81280000D03*
X64770000Y-81280000D03*
X67310000Y-81280000D03*
X69850000Y-81280000D03*
X72390000Y-81280000D03*
X74930000Y-81280000D03*
D15*
X85090000Y-19050000D03*
D16*
X82550000Y-19050000D03*
X80010000Y-19050000D03*
X77470000Y-19050000D03*
X74930000Y-19050000D03*
X72390000Y-19050000D03*
X69850000Y-19050000D03*
X67310000Y-19050000D03*
X64770000Y-19050000D03*
X62230000Y-19050000D03*
X59690000Y-19050000D03*
X57150000Y-19050000D03*
X54610000Y-19050000D03*
X52070000Y-19050000D03*
X49530000Y-19050000D03*
X46990000Y-19050000D03*
D15*
X46990000Y-39370000D03*
D16*
X49530000Y-39370000D03*
X52070000Y-39370000D03*
X54610000Y-39370000D03*
X57150000Y-39370000D03*
X59690000Y-39370000D03*
X62230000Y-39370000D03*
X64770000Y-39370000D03*
X67310000Y-39370000D03*
X69850000Y-39370000D03*
X72390000Y-39370000D03*
X74930000Y-39370000D03*
D17*
X32385000Y-69215000D03*
D18*
X32385000Y-75215000D03*
X37085000Y-72215000D03*
D13*
X59690000Y-66040000D03*
D14*
X64690000Y-66040000D03*
D13*
X52070000Y-73660000D03*
D14*
X57070000Y-73660000D03*
D13*
X44450000Y-66040000D03*
D14*
X49450000Y-66040000D03*
D19*
X39370000Y-38100000D03*
X40640000Y-29210000D03*
X33020000Y-44450000D03*
X41910000Y-44450000D03*
X33020000Y-47625000D03*
X41910000Y-46355000D03*
X52070000Y-58420000D03*
X52070000Y-53340000D03*
X59690000Y-58420000D03*
X59690000Y-51435000D03*
X67310000Y-58420000D03*
X67310000Y-53340000D03*
D20*
X39370000Y-38100000D02*
X40640000Y-36830000D01*
X40640000Y-36830000D02*
X40640000Y-29210000D01*
X41910000Y-44450000D02*
X33020000Y-44450000D01*
X40640000Y-47625000D02*
X33020000Y-47625000D01*
X41910000Y-46355000D02*
X40640000Y-47625000D01*
X52070000Y-53340000D02*
X52070000Y-58420000D01*
X59690000Y-51435000D02*
X59690000Y-58420000D01*
X67310000Y-58420000D02*
X67310000Y-53340000D01*
M02*
