M48
;DRILL file {KiCad 4.0.7-e2-6376~58~ubuntu16.04.1} date Thu Nov 30 15:07:13 2017
;FORMAT={-:-/ absolute / metric / decimal}
FMAT,2
METRIC,TZ
T1C0.800
T2C0.900
T3C1.000
T4C1.600
%
G90
G05
M71
T1
X24.638Y-19.304
X24.638Y-21.844
X24.638Y-24.384
X24.638Y-26.924
X24.638Y-29.464
X24.638Y-32.004
X24.638Y-34.544
X24.638Y-37.084
X32.258Y-19.304
X32.258Y-21.844
X32.258Y-24.384
X32.258Y-26.924
X32.258Y-29.464
X32.258Y-32.004
X32.258Y-34.544
X32.258Y-37.084
X36.322Y-29.464
X36.322Y-34.544
X46.228Y-52.578
X46.228Y-57.658
X53.848Y-52.578
X53.848Y-57.658
X61.468Y-52.578
X61.468Y-57.658
T2
X29.718Y-45.466
X30.988Y-41.91
X40.386Y-41.91
X40.386Y-43.942
T3
X38.608Y-65.532
X41.148Y-80.772
X43.608Y-65.532
X43.688Y-16.764
X43.688Y-37.084
X43.688Y-80.772
X46.228Y-16.764
X46.228Y-37.084
X46.228Y-73.152
X46.228Y-80.772
X48.768Y-16.764
X48.768Y-37.084
X48.768Y-80.772
X51.228Y-73.152
X51.308Y-16.764
X51.308Y-37.084
X51.308Y-80.772
X53.848Y-16.764
X53.848Y-37.084
X53.848Y-65.532
X53.848Y-80.772
X56.388Y-16.764
X56.388Y-37.084
X56.388Y-80.772
X58.848Y-65.532
X58.928Y-16.764
X58.928Y-37.084
X58.928Y-80.772
X61.468Y-16.764
X61.468Y-37.084
X61.468Y-73.152
X61.468Y-80.772
X64.008Y-16.764
X64.008Y-37.084
X64.008Y-80.772
X66.468Y-73.152
X66.548Y-16.764
X66.548Y-37.084
X66.548Y-80.772
X69.088Y-16.764
X69.088Y-37.084
X69.088Y-80.772
X71.628Y-16.764
X71.628Y-37.084
X74.168Y-16.764
X76.708Y-16.764
X79.248Y-16.764
X81.788Y-16.764
T4
X26.543Y-68.707
X26.543Y-74.707
X31.243Y-71.707
T0
M30
