G04 #@! TF.FileFunction,Legend,Bot*
%FSLAX46Y46*%
G04 Gerber Fmt 4.6, Leading zero omitted, Abs format (unit mm)*
G04 Created by KiCad (PCBNEW 4.0.7-e2-6376~58~ubuntu16.04.1) date Fri Nov 24 12:37:30 2017*
%MOMM*%
%LPD*%
G01*
G04 APERTURE LIST*
%ADD10C,0.100000*%
%ADD11C,0.120000*%
%ADD12C,0.150000*%
G04 APERTURE END LIST*
D10*
D11*
X76000000Y-56880000D02*
X76000000Y-54880000D01*
X73860000Y-54880000D02*
X73860000Y-56880000D01*
X65770000Y-49095000D02*
X63770000Y-49095000D01*
X63770000Y-51235000D02*
X65770000Y-51235000D01*
X48625000Y-50365000D02*
X46625000Y-50365000D01*
X46625000Y-52505000D02*
X48625000Y-52505000D01*
X41005000Y-52270000D02*
X39005000Y-52270000D01*
X39005000Y-54410000D02*
X41005000Y-54410000D01*
D12*
X73532381Y-55713334D02*
X73056190Y-55380000D01*
X73532381Y-55141905D02*
X72532381Y-55141905D01*
X72532381Y-55522858D01*
X72580000Y-55618096D01*
X72627619Y-55665715D01*
X72722857Y-55713334D01*
X72865714Y-55713334D01*
X72960952Y-55665715D01*
X73008571Y-55618096D01*
X73056190Y-55522858D01*
X73056190Y-55141905D01*
X73532381Y-56665715D02*
X73532381Y-56094286D01*
X73532381Y-56380000D02*
X72532381Y-56380000D01*
X72675238Y-56284762D01*
X72770476Y-56189524D01*
X72818095Y-56094286D01*
X64936666Y-52467381D02*
X65270000Y-51991190D01*
X65508095Y-52467381D02*
X65508095Y-51467381D01*
X65127142Y-51467381D01*
X65031904Y-51515000D01*
X64984285Y-51562619D01*
X64936666Y-51657857D01*
X64936666Y-51800714D01*
X64984285Y-51895952D01*
X65031904Y-51943571D01*
X65127142Y-51991190D01*
X65508095Y-51991190D01*
X64555714Y-51562619D02*
X64508095Y-51515000D01*
X64412857Y-51467381D01*
X64174761Y-51467381D01*
X64079523Y-51515000D01*
X64031904Y-51562619D01*
X63984285Y-51657857D01*
X63984285Y-51753095D01*
X64031904Y-51895952D01*
X64603333Y-52467381D01*
X63984285Y-52467381D01*
X47791666Y-53737381D02*
X48125000Y-53261190D01*
X48363095Y-53737381D02*
X48363095Y-52737381D01*
X47982142Y-52737381D01*
X47886904Y-52785000D01*
X47839285Y-52832619D01*
X47791666Y-52927857D01*
X47791666Y-53070714D01*
X47839285Y-53165952D01*
X47886904Y-53213571D01*
X47982142Y-53261190D01*
X48363095Y-53261190D01*
X47458333Y-52737381D02*
X46839285Y-52737381D01*
X47172619Y-53118333D01*
X47029761Y-53118333D01*
X46934523Y-53165952D01*
X46886904Y-53213571D01*
X46839285Y-53308810D01*
X46839285Y-53546905D01*
X46886904Y-53642143D01*
X46934523Y-53689762D01*
X47029761Y-53737381D01*
X47315476Y-53737381D01*
X47410714Y-53689762D01*
X47458333Y-53642143D01*
X40171666Y-55642381D02*
X40505000Y-55166190D01*
X40743095Y-55642381D02*
X40743095Y-54642381D01*
X40362142Y-54642381D01*
X40266904Y-54690000D01*
X40219285Y-54737619D01*
X40171666Y-54832857D01*
X40171666Y-54975714D01*
X40219285Y-55070952D01*
X40266904Y-55118571D01*
X40362142Y-55166190D01*
X40743095Y-55166190D01*
X39314523Y-54975714D02*
X39314523Y-55642381D01*
X39552619Y-54594762D02*
X39790714Y-55309048D01*
X39171666Y-55309048D01*
M02*
