M48
;DRILL file {KiCad 4.0.7-e2-6376~58~ubuntu16.04.1} date Fri Nov 24 12:36:55 2017
;FORMAT={-:-/ absolute / metric / decimal}
FMAT,2
METRIC,TZ
T1C0.700
T2C0.800
T3C1.000
T4C1.600
%
G90
G05
M71
T1
X33.02Y-44.45
X33.02Y-47.625
X39.37Y-38.1
X40.64Y-29.21
X41.91Y-44.45
X41.91Y-46.355
X52.07Y-53.34
X52.07Y-58.42
X59.69Y-51.435
X59.69Y-58.42
X67.31Y-53.34
X67.31Y-58.42
T2
X27.94Y-21.59
X27.94Y-24.13
X27.94Y-26.67
X27.94Y-29.21
X27.94Y-31.75
X27.94Y-34.29
X27.94Y-36.83
X27.94Y-39.37
X35.56Y-21.59
X35.56Y-24.13
X35.56Y-26.67
X35.56Y-29.21
X35.56Y-31.75
X35.56Y-34.29
X35.56Y-36.83
X35.56Y-39.37
T3
X44.45Y-66.04
X46.99Y-19.05
X46.99Y-39.37
X46.99Y-81.28
X49.45Y-66.04
X49.53Y-19.05
X49.53Y-39.37
X49.53Y-81.28
X52.07Y-19.05
X52.07Y-39.37
X52.07Y-73.66
X52.07Y-81.28
X54.61Y-19.05
X54.61Y-39.37
X54.61Y-81.28
X57.07Y-73.66
X57.15Y-19.05
X57.15Y-39.37
X57.15Y-81.28
X59.69Y-19.05
X59.69Y-39.37
X59.69Y-66.04
X59.69Y-81.28
X62.23Y-19.05
X62.23Y-39.37
X62.23Y-81.28
X64.69Y-66.04
X64.77Y-19.05
X64.77Y-39.37
X64.77Y-81.28
X67.31Y-19.05
X67.31Y-39.37
X67.31Y-73.66
X67.31Y-81.28
X69.85Y-19.05
X69.85Y-39.37
X69.85Y-81.28
X72.31Y-73.66
X72.39Y-19.05
X72.39Y-39.37
X72.39Y-81.28
X74.93Y-19.05
X74.93Y-39.37
X74.93Y-81.28
X77.47Y-19.05
X80.01Y-19.05
X82.55Y-19.05
X85.09Y-19.05
T4
X32.385Y-69.215
X32.385Y-75.215
X37.085Y-72.215
T0
M30
