G04 #@! TF.FileFunction,Copper,L1,Top,Signal*
%FSLAX46Y46*%
G04 Gerber Fmt 4.6, Leading zero omitted, Abs format (unit mm)*
G04 Created by KiCad (PCBNEW 4.0.7-e2-6376~58~ubuntu16.04.1) date Thu Nov 30 15:06:58 2017*
%MOMM*%
%LPD*%
G01*
G04 APERTURE LIST*
%ADD10C,0.600000*%
%ADD11R,2.000000X2.000000*%
%ADD12C,2.000000*%
%ADD13R,1.600000X1.600000*%
%ADD14O,1.600000X1.600000*%
%ADD15R,1.700000X1.700000*%
%ADD16O,1.700000X1.700000*%
%ADD17R,2.600000X2.600000*%
%ADD18C,2.600000*%
%ADD19C,1.600000*%
%ADD20C,1.100000*%
%ADD21C,1.000000*%
G04 APERTURE END LIST*
D10*
D11*
X38608000Y-65532000D03*
D12*
X43608000Y-65532000D03*
D13*
X24638000Y-19304000D03*
D14*
X32258000Y-37084000D03*
X24638000Y-21844000D03*
X32258000Y-34544000D03*
X24638000Y-24384000D03*
X32258000Y-32004000D03*
X24638000Y-26924000D03*
X32258000Y-29464000D03*
X24638000Y-29464000D03*
X32258000Y-26924000D03*
X24638000Y-32004000D03*
X32258000Y-24384000D03*
X24638000Y-34544000D03*
X32258000Y-21844000D03*
X24638000Y-37084000D03*
X32258000Y-19304000D03*
D11*
X61468000Y-73152000D03*
D12*
X66468000Y-73152000D03*
D15*
X41148000Y-80772000D03*
D16*
X43688000Y-80772000D03*
X46228000Y-80772000D03*
X48768000Y-80772000D03*
X51308000Y-80772000D03*
X53848000Y-80772000D03*
X56388000Y-80772000D03*
X58928000Y-80772000D03*
X61468000Y-80772000D03*
X64008000Y-80772000D03*
X66548000Y-80772000D03*
X69088000Y-80772000D03*
D15*
X81788000Y-16764000D03*
D16*
X79248000Y-16764000D03*
X76708000Y-16764000D03*
X74168000Y-16764000D03*
X71628000Y-16764000D03*
X69088000Y-16764000D03*
X66548000Y-16764000D03*
X64008000Y-16764000D03*
X61468000Y-16764000D03*
X58928000Y-16764000D03*
X56388000Y-16764000D03*
X53848000Y-16764000D03*
X51308000Y-16764000D03*
X48768000Y-16764000D03*
X46228000Y-16764000D03*
X43688000Y-16764000D03*
D15*
X43688000Y-37084000D03*
D16*
X46228000Y-37084000D03*
X48768000Y-37084000D03*
X51308000Y-37084000D03*
X53848000Y-37084000D03*
X56388000Y-37084000D03*
X58928000Y-37084000D03*
X61468000Y-37084000D03*
X64008000Y-37084000D03*
X66548000Y-37084000D03*
X69088000Y-37084000D03*
X71628000Y-37084000D03*
D17*
X26543000Y-68707000D03*
D18*
X26543000Y-74707000D03*
X31243000Y-71707000D03*
D11*
X53848000Y-65532000D03*
D12*
X58848000Y-65532000D03*
D11*
X46228000Y-73152000D03*
D12*
X51228000Y-73152000D03*
D19*
X36322000Y-29464000D03*
D14*
X36322000Y-34544000D03*
D19*
X61468000Y-52578000D03*
D14*
X61468000Y-57658000D03*
D19*
X53848000Y-52578000D03*
D14*
X53848000Y-57658000D03*
D19*
X46228000Y-52578000D03*
D14*
X46228000Y-57658000D03*
D20*
X30988000Y-41910000D03*
X40386000Y-41910000D03*
X29718000Y-45466000D03*
X40386000Y-43942000D03*
D21*
X40386000Y-41910000D02*
X30988000Y-41910000D01*
X40386000Y-43942000D02*
X31242000Y-43942000D01*
X31242000Y-43942000D02*
X29718000Y-45466000D01*
M02*
